<?xml version="1.0" encoding="UTF-8"?>
<svg xmlns="http://www.w3.org/2000/svg" xmlns:xlink="http://www.w3.org/1999/xlink" width="30pt" height="30pt" viewBox="0 0 30 30" version="1.1">
<g id="surface20314227">
<rect x="0" y="0" width="30" height="30" style="fill:rgb(100%,100%,100%);fill-opacity:1;stroke:none;"/>
<path style=" stroke:none;fill-rule:nonzero;fill:rgb(18.039216%,80.000001%,44.313726%);fill-opacity:1;" d="M 15 1.199219 C 7.390625 1.199219 1.199219 7.390625 1.199219 15 C 1.199219 22.609375 7.390625 28.800781 15 28.800781 C 22.609375 28.800781 28.800781 22.609375 28.800781 15 C 28.800781 12.265625 27.996094 9.714844 26.617188 7.566406 L 25.796875 8.539062 C 26.933594 10.429688 27.601562 12.636719 27.601562 15 C 27.601562 21.949219 21.949219 27.601562 15 27.601562 C 8.050781 27.601562 2.398438 21.949219 2.398438 15 C 2.398438 8.050781 8.050781 2.398438 15 2.398438 C 18.265625 2.398438 21.238281 3.660156 23.476562 5.707031 L 24.261719 4.777344 C 21.8125 2.554688 18.5625 1.199219 15 1.199219 Z M 25.941406 4.652344 L 14.347656 18.332031 L 9.46875 13.78125 L 8.652344 14.660156 L 14.449219 20.070312 L 26.859375 5.429688 Z M 25.941406 4.652344 "/>
</g>
</svg>
